<?xml version="1.0" standalone="no"?><!DOCTYPE svg PUBLIC "-//W3C//DTD SVG 1.1//EN" "http://www.w3.org/Graphics/SVG/1.1/DTD/svg11.dtd"><svg t="1754016308528" class="icon" viewBox="0 0 1024 1024" version="1.1" xmlns="http://www.w3.org/2000/svg" p-id="4554" xmlns:xlink="http://www.w3.org/1999/xlink" width="200" height="200"><path d="M23.552 622.592c24.576-16.896-25.088-12.8-17.92 18.944 14.336 3.072 19.968-4.096 22.016-17.408 4.096-27.648 10.24-54.784 13.824-82.944 2.56-17.408 10.24-25.6 28.16-25.088 22.016 0.512 44.032 0 65.536 0 16.384 0 24.064 8.192 24.064 24.064v61.44c51.2-13.824 99.328-27.648 146.944-39.936 16.896-4.096 34.304-7.168 51.2-7.168 219.136-0.512 329.216-0.512 547.84 0 62.976 0 99.328 29.184 112.128 90.112 12.8 57.856-15.36 114.176-67.584 136.704-2.56 1.024-4.608 3.072-7.168 4.608h-618.496c-53.76-15.36-107.52-31.744-158.208-46.08-7.168 17.408-13.312 31.744-18.944 46.08H51.2c-7.68-23.552-16.384-46.592-22.016-70.656-3.584-13.824-10.752-18.432-23.552-16.384-2.56 28.672 38.912 37.888 17.92 18.944v-95.232z" p-id="4555" fill="#e11c7f"></path></svg>