<?xml version="1.0" standalone="no"?><!DOCTYPE svg PUBLIC "-//W3C//DTD SVG 1.1//EN" "http://www.w3.org/Graphics/SVG/1.1/DTD/svg11.dtd"><svg t="1758767384359" class="icon" viewBox="0 0 1024 1024" version="1.1" xmlns="http://www.w3.org/2000/svg" p-id="1759" xmlns:xlink="http://www.w3.org/1999/xlink" width="200" height="200"><path d="M816.128 928.768H272.384V281.6l253.952-110.592 289.792 378.88z" fill="#76C5A8" p-id="1760"></path><path d="M418.816 342.016l71.68-31.744 212.992 277.504v227.328h-317.44V356.352zM427.008 214.016l-40.96-53.248H272.384v120.832z" fill="#76C5A8" p-id="1761"></path><path d="M272.384 95.232h113.664v65.536H272.384z" fill="#919DA8" p-id="1762"></path><path d="M756.736 549.888V266.24c0-18.432-15.36-33.792-33.792-33.792H525.312l1.024-62.464h204.8c47.104 0 84.992 37.888 84.992 84.992v293.888h-59.392z" fill="#76C5A8" p-id="1763"></path><path d="M665.6 804.864H396.288V356.352c0-6.144-5.12-10.24-10.24-10.24-6.144 0-10.24 5.12-10.24 10.24v459.776c0 6.144 5.12 10.24 10.24 10.24H665.6c6.144 0 10.24-5.12 10.24-10.24 0-7.168-4.096-11.264-10.24-11.264zM486.4 300.032l-71.68 31.744c-5.12 2.048-8.192 8.192-5.12 14.336 2.048 5.12 8.192 8.192 14.336 5.12l64.512-28.672 204.8 268.288v223.232c0 6.144 5.12 10.24 10.24 10.24 6.144 0 10.24-5.12 10.24-10.24V587.776c0-2.048-1.024-4.096-2.048-6.144L498.688 304.128c-3.072-4.096-8.192-6.144-12.288-4.096z" fill="#1F384A" p-id="1764"></path><path d="M732.16 159.744H583.68c-6.144 0-10.24 5.12-10.24 10.24 0 6.144 5.12 10.24 10.24 10.24h148.48c40.96 0 73.728 32.768 73.728 73.728v263.168L595.968 243.712h128c12.288 0 22.528 10.24 22.528 22.528v144.384c0 6.144 5.12 10.24 10.24 10.24 6.144 0 10.24-5.12 10.24-10.24V266.24c0-24.576-19.456-44.032-44.032-44.032h-143.36L535.552 163.84c-3.072-4.096-8.192-5.12-12.288-3.072l-92.16 39.936-33.792-44.032v-61.44c0-6.144-5.12-10.24-10.24-10.24H272.384c-6.144 0-10.24 5.12-10.24 10.24v833.536c0 6.144 5.12 10.24 10.24 10.24h543.744c6.144 0 10.24-5.12 10.24-10.24V254.976c1.024-52.224-41.984-95.232-94.208-95.232z m-448.512 12.288h97.28l29.696 38.912L283.648 266.24v-94.208z m0-65.536h92.16v44.032h-92.16v-44.032z m522.24 811.008h-522.24V288.768L523.264 184.32l282.624 368.64v364.544z" fill="#1F384A" p-id="1765"></path></svg>